<svg version="1.1" viewBox="0.0 0.0 2334.3753280839896 1025.0" fill="none" stroke="none" stroke-linecap="square" stroke-miterlimit="10" xmlns:xlink="http://www.w3.org/1999/xlink" xmlns="http://www.w3.org/2000/svg"><clipPath id="p.0"><path d="m0 0l2334.3752 0l0 1025.0l-2334.3752 0l0 -1025.0z" clip-rule="nonzero"/></clipPath><g clip-path="url(#p.0)"><path fill="#000000" fill-opacity="0.0" d="m0 0l2334.3752 0l0 1025.0l-2334.3752 0z" fill-rule="evenodd"/><path fill="#e06666" d="m112.183876 262.74576l0 0c0 -9.532547 7.727646 -17.260193 17.260185 -17.260193l172.59775 0c4.577667 0 8.967865 1.8184814 12.204773 5.0553894c3.2369385 3.236908 5.0553894 7.6271057 5.0553894 12.204803l0 69.038666c0 9.532532 -7.7276306 17.260193 -17.260162 17.260193l-172.59775 0c-9.532539 0 -17.260185 -7.727661 -17.260185 -17.260193z" fill-rule="evenodd"/><path fill="#e06666" d="m112.18387 468.21033l0 0c0 -9.532532 7.727646 -17.260193 17.260178 -17.260193l172.59773 0c4.5776978 0 8.9678955 1.8184814 12.204803 5.0553894c3.236908 3.236908 5.0553894 7.6271057 5.0553894 12.204803l0 69.0387c0 9.532532 -7.7276306 17.260193 -17.260193 17.260193l-172.59773 0c-9.532532 0 -17.260178 -7.727661 -17.260178 -17.260193z" fill-rule="evenodd"/><path fill="#e06666" d="m46.442413 245.48563l52.62992 0l0 103.55905l-52.62992 0z" fill-rule="evenodd"/><path fill="#e06666" d="m46.429546 349.05386l52.629917 0l0 103.55905l-52.629917 0z" fill-rule="evenodd"/><path fill="#e06666" d="m46.429546 450.9492l52.629917 0l0 103.55905l-52.629917 0z" fill-rule="evenodd"/><path fill="#e06666" d="m46.429546 681.3997l52.629917 0l0 78.614136l-52.629917 0z" fill-rule="evenodd"/><path fill="#e06666" d="m0.02887454 247.66473l33.354332 0l0 32.251984l-33.354332 0z" fill-rule="evenodd"/><path fill="#e06666" d="m0.02887454 293.01447l33.354332 0l0 32.251953l-33.354332 0z" fill-rule="evenodd"/><path fill="#e06666" d="m0.02887454 338.36417l33.354332 0l0 32.251984l-33.354332 0z" fill-rule="evenodd"/><path fill="#e06666" d="m0.02887454 383.7139l33.354332 0l0 32.251953l-33.354332 0z" fill-rule="evenodd"/><path fill="#e06666" d="m0.02887454 429.0636l33.354332 0l0 32.251984l-33.354332 0z" fill-rule="evenodd"/><path fill="#e06666" d="m0.02887454 474.41333l33.354332 0l0 32.251953l-33.354332 0z" fill-rule="evenodd"/><path fill="#e06666" d="m0.02887454 519.76306l33.354332 0l0 32.251953l-33.354332 0z" fill-rule="evenodd"/><path fill="#e06666" d="m-0.0011527559 681.3982l33.35433 0l0 32.252014l-33.35433 0z" fill-rule="evenodd"/><path fill="#e06666" d="m-0.0011527559 726.7479l33.35433 0l0 32.251953l-33.35433 0z" fill-rule="evenodd"/><path fill="#e06666" d="m112.13648 694.4622l0 0c0 -7.236389 5.866249 -13.102661 13.102623 -13.102661l180.91287 0c3.4750366 0 6.8077393 1.3804932 9.264954 3.8377075c2.4572144 2.4572144 3.837677 5.789917 3.837677 9.264954l0 52.408936c0 7.236328 -5.866272 13.1026 -13.102631 13.1026l-180.91287 0l0 0c-7.236374 0 -13.102623 -5.866272 -13.102623 -13.1026z" fill-rule="evenodd"/><path fill="#000000" fill-opacity="0.0" d="m483.8819 211.93242l2164.8503 0l0 601.13385l-2164.8503 0z" fill-rule="evenodd"/><path fill="#db6b6b" d="m648.8819 686.5293q-37.921875 0 -66.96875 -8.390625q-29.03125 -8.40625 -50.875 -23.765625q-21.84375 -15.359375 -39.109375 -36.0l60.0 -67.203125q24.0 30.71875 50.15625 40.5625q26.15625 9.84375 49.203125 9.84375q9.109375 0 16.3125 -1.671875q7.203125 -1.6875 11.03125 -5.53125q3.84375 -3.84375 3.84375 -10.5625q0 -6.234375 -4.078125 -10.546875q-4.078125 -4.328125 -10.796875 -7.453125q-6.71875 -3.125 -14.640625 -5.28125q-7.921875 -2.15625 -15.359375 -3.59375q-7.4375 -1.4375 -13.203125 -2.890625q-28.796875 -6.71875 -50.40625 -16.3125q-21.59375 -9.59375 -36.0 -23.03125q-14.390625 -13.4531555 -21.359375 -30.734406q-6.953125 -17.28125 -6.953125 -38.875q0 -24.484375 11.28125 -44.640625q11.28125 -20.15625 30.234375 -34.546875q18.96875 -14.40625 43.203125 -22.078125q24.25 -7.6875 50.171875 -7.6875q37.90625 0 63.34375 6.953125q25.453125 6.953125 42.734375 19.921875q17.28125 12.953125 29.75 30.234375l-60.46875 58.078125q-10.5625 -10.078125 -22.09375 -16.546875q-11.515625 -6.484375 -23.765625 -9.609375q-12.234375 -3.125 -24.234375 -3.125q-11.03125 0 -18.71875 1.6875q-7.671875 1.6875 -12.0 5.28125q-4.3125 3.59375 -4.3125 9.84375q0 6.234375 5.515625 10.3125q5.515625 4.078125 13.921875 6.96875q8.40625 2.875 16.796875 4.5625q8.40625 1.671875 14.15625 2.625q26.40625 4.8125 48.484375 13.21875q22.078125 8.390625 38.640625 21.109375q16.5625 12.71875 25.4375 31.68753q8.890625 18.953125 8.890625 44.875q0 36.953125 -18.484375 61.921875q-18.484375 24.953125 -49.6875 37.671875q-31.1875 12.71875 -69.59375 12.71875zm209.75812 105.609375l63.84375 -150.71875l0.953125 39.359375l-120.46875 -255.84378l108.46875 0l35.53125 85.4375q5.75 13.4375305 9.828125 25.43753q4.078125 12.0 6.0 22.5625l-9.59375 8.640625q1.921875 -5.28125 5.75 -16.5625q3.84375 -11.28125 8.65625 -26.15625l33.59375 -99.359406l108.484375 0l-111.84375 256.7969l-45.125 110.40625l-94.078125 0zm287.03564 -110.40625l0 -256.7969l90.25 0l4.796875 51.84375l-20.640625 5.75q5.28125 -18.234375 18.953125 -32.390625q13.6875 -14.171875 32.890625 -22.328125q19.203125 -8.15625 40.796875 -8.15625q28.796875 0 48.953125 12.0q20.171875 12.0 30.484375 35.28125q10.328125 23.28125 10.328125 56.390656l0 158.40625l-97.453125 0l0 -150.23438q0 -10.5625 -3.359375 -17.765625q-3.359375 -7.2031555 -10.078125 -11.0312805q-6.71875 -3.84375 -15.828125 -3.84375q-7.203125 0 -13.203125 2.15625q-6.0 2.15625 -10.328125 6.484375q-4.3125 4.3125 -6.71875 9.5937805q-2.390625 5.28125 -2.390625 12.0l0 152.64062l-48.484375 0q-18.25 0 -30.484375 0q-12.234375 0 -18.484375 0zm389.2843 0l0 -247.68753l-103.671875 0l0 -88.3125l313.90625 0l0 88.3125l-106.546875 0l0 247.68753l-103.6875 0zm301.9231 4.3125q-32.15625 0 -57.125 -17.03125q-24.953125 -17.046875 -39.359375 -47.046875q-14.390625 -30.0 -14.390625 -68.875q0 -39.359375 14.15625 -69.359406q14.15625 -30.0 39.359375 -47.03125q25.203125 -17.046875 58.3125 -17.046875q17.28125 0 31.671875 4.796875q14.40625 4.796875 25.453125 13.4375q11.046875 8.640625 19.203125 19.921875q8.15625 11.28125 13.921875 24.234375l-19.6875 -0.46875l0 -56.640625l95.515625 0l0 256.7969l-97.90625 0l0 -62.875l21.59375 1.921875q-4.796875 13.90625 -13.203125 25.90625q-8.390625 12.0 -19.921875 20.640625q-11.515625 8.640625 -25.921875 13.6875q-14.390625 5.03125 -31.671875 5.03125zm27.84375 -79.1875q13.921875 0 23.75 -6.234375q9.84375 -6.25 14.875 -18.25q5.046875 -12.0 5.046875 -29.28125q0 -17.28125 -5.046875 -29.515625q-5.03125 -12.2500305 -14.875 -18.484406q-9.828125 -6.234375 -23.75 -6.234375q-13.921875 0 -23.53125 6.234375q-9.59375 6.234375 -14.640625 18.484406q-5.03125 12.234375 -5.03125 29.515625q0 17.28125 5.03125 29.28125q5.046875 12.0 14.640625 18.25q9.609375 6.234375 23.53125 6.234375zm325.92017 185.28125q-34.5625 0 -68.40625 -9.609375q-33.84375 -9.59375 -55.4375 -24.953125l33.125 -65.28125q10.546875 6.71875 22.0625 11.515625q11.53125 4.796875 24.25 7.203125q12.71875 2.40625 27.125 2.40625q22.5625 0 36.46875 -6.0q13.921875 -6.0 20.40625 -18.96875q6.484375 -12.953125 6.484375 -33.125l0 -38.390625l21.59375 1.921875q-3.84375 16.3125 -16.796875 28.796875q-12.953125 12.484375 -32.15625 19.6875q-19.203125 7.1875 -40.796875 7.1875q-34.09375 0 -60.25 -15.359375q-26.15625 -15.359375 -41.28125 -42.953125q-15.109375 -27.609375 -15.109375 -65.046875q0 -38.875 14.875 -68.390656q14.875 -29.53125 40.546875 -46.328125q25.6875 -16.796875 58.8125 -16.796875q14.40625 0 27.359375 2.890625q12.953125 2.875 24.0 7.921875q11.046875 5.03125 19.671875 12.234375q8.640625 7.1875 14.15625 15.828125q5.53125 8.640625 7.453125 18.71875l-19.6875 4.328125l5.28125 -56.640625l90.25 0l0 231.84378q0 32.15625 -9.84375 57.34375q-9.84375 25.203125 -28.5625 42.71875q-18.71875 17.53125 -45.359375 26.40625q-26.640625 8.890625 -60.234375 8.890625zm2.390625 -187.20312q14.890625 0 25.203125 -6.234375q10.328125 -6.25 15.59375 -18.0q5.28125 -11.765625 5.28125 -28.5625q0 -16.8125 -5.28125 -28.8125q-5.265625 -12.0000305 -15.59375 -18.234406q-10.3125 -6.234375 -25.203125 -6.234375q-14.875 0 -24.953125 6.234375q-10.078125 6.234375 -15.359375 18.234406q-5.28125 12.0 -5.28125 28.8125q0 16.796875 5.28125 28.5625q5.28125 11.75 15.359375 18.0q10.078125 6.234375 24.953125 6.234375z" fill-rule="nonzero"/><path fill="#e06666" d="m233.00311 713.78217l0 0c-9.532547 0 -17.260193 -7.727661 -17.260193 -17.260193l0 -172.59772c0 -4.5776978 1.8184814 -8.9678955 5.0553894 -12.204834c3.2369232 -3.236908 7.6271057 -5.0553894 12.204803 -5.0553894l69.038666 0c9.532562 0 17.260193 7.7276306 17.260193 17.260223l0 172.59772c0 9.532532 -7.7276306 17.260193 -17.260193 17.260193z" fill-rule="evenodd"/></g></svg>