<svg width="96" height="96" viewBox="0 0 96 96" fill="none" xmlns="http://www.w3.org/2000/svg">
<path fill-rule="evenodd" clip-rule="evenodd" d="M41.2189 15.4165C41.2189 14.1234 42.2672 13.0751 43.5604 13.0751H66.9748C67.5958 13.0751 68.1914 13.3217 68.6305 13.7609C69.0696 14.2 69.3163 14.7955 69.3163 15.4165V24.7823C69.3163 26.0754 68.268 27.1238 66.9748 27.1238H43.5604C42.2672 27.1238 41.2189 26.0754 41.2189 24.7823V15.4165Z" fill="#E06666"/>
<path fill-rule="evenodd" clip-rule="evenodd" d="M41.2189 43.2897C41.2189 41.9965 42.2672 40.9482 43.5604 40.9482H66.9748C67.5958 40.9482 68.1914 41.1948 68.6305 41.634C69.0696 42.0731 69.3163 42.6686 69.3163 43.2897V52.6554C69.3163 53.9485 68.268 54.9969 66.9748 54.9969H43.5604C42.2672 54.9969 41.2189 53.9485 41.2189 52.6554V43.2897Z" fill="#E06666"/>
<path fill-rule="evenodd" clip-rule="evenodd" d="M32.3005 13.0751H39.4402V27.1238H32.3005V13.0751Z" fill="#E06666"/>
<path fill-rule="evenodd" clip-rule="evenodd" d="M32.2987 27.125H39.4385V41.1737H32.2987V27.125Z" fill="#E06666"/>
<path fill-rule="evenodd" clip-rule="evenodd" d="M32.2987 40.948H39.4385V54.9967H32.2987V40.948Z" fill="#E06666"/>
<path fill-rule="evenodd" clip-rule="evenodd" d="M32.2987 72.2107H39.4385V82.8754H32.2987V72.2107Z" fill="#E06666"/>
<path fill-rule="evenodd" clip-rule="evenodd" d="M26.0041 13.3707H30.5289V17.7459H26.0041V13.3707Z" fill="#E06666"/>
<path fill-rule="evenodd" clip-rule="evenodd" d="M26.0041 19.5228H30.5289V23.898H26.0041V19.5228Z" fill="#E06666"/>
<path fill-rule="evenodd" clip-rule="evenodd" d="M26.0041 25.6749H30.5289V30.0501H26.0041V25.6749Z" fill="#E06666"/>
<path fill-rule="evenodd" clip-rule="evenodd" d="M26.0041 31.8269H30.5289V36.2022H26.0041V31.8269Z" fill="#E06666"/>
<path fill-rule="evenodd" clip-rule="evenodd" d="M26.0041 37.979H30.5289V42.3543H26.0041V37.979Z" fill="#E06666"/>
<path fill-rule="evenodd" clip-rule="evenodd" d="M26.0041 44.1311H30.5289V48.5064H26.0041V44.1311Z" fill="#E06666"/>
<path fill-rule="evenodd" clip-rule="evenodd" d="M26.0041 50.2832H30.5289V54.6585H26.0041V50.2832Z" fill="#E06666"/>
<path fill-rule="evenodd" clip-rule="evenodd" d="M26 72.2105H30.5248V76.5858H26V72.2105Z" fill="#E06666"/>
<path fill-rule="evenodd" clip-rule="evenodd" d="M26 78.3626H30.5248V82.7378H26V78.3626Z" fill="#E06666"/>
<path fill-rule="evenodd" clip-rule="evenodd" d="M41.2125 73.9827C41.2125 73.0011 42.0083 72.2052 42.99 72.2052H67.5324C68.0038 72.2052 68.4559 72.3925 68.7893 72.7259C69.1226 73.0592 69.3099 73.5113 69.3099 73.9827V81.0925C69.3099 82.0742 68.5141 82.87 67.5324 82.87H42.99C42.0083 82.87 41.2125 82.0742 41.2125 81.0925V73.9827Z" fill="#E06666"/>
<path fill-rule="evenodd" clip-rule="evenodd" d="M57.6091 76.6037C56.3159 76.6037 55.2676 75.5553 55.2676 74.2622V50.8477C55.2676 50.2267 55.5143 49.6312 55.9534 49.192C56.3925 48.7529 56.9881 48.5062 57.6091 48.5062H66.9748C68.268 48.5062 69.3163 49.5546 69.3163 50.8477V74.2622C69.3163 75.5553 68.268 76.6037 66.9748 76.6037H57.6091Z" fill="#E06666"/>
</svg>
