<svg width="229" height="101" viewBox="0 0 229 101" fill="none" xmlns="http://www.w3.org/2000/svg">
<g clip-path="url(#clip0_22_81)">
<mask id="mask0_22_81" style="mask-type:luminance" maskUnits="userSpaceOnUse" x="0" y="0" width="229" height="101">
<path d="M0.315674 0.5H228.06V100.5H0.315674V0.5Z" fill="white"/>
</mask>
<g mask="url(#mask0_22_81)">
<path fill-rule="evenodd" clip-rule="evenodd" d="M11.2604 26.1338C11.2604 25.2037 12.0143 24.4498 12.9443 24.4498H29.7831C30.2297 24.4498 30.658 24.6272 30.9738 24.943C31.2896 25.2588 31.467 25.6871 31.467 26.1338V32.8692C31.467 33.7992 30.7131 34.5532 29.7831 34.5532H12.9443C12.0143 34.5532 11.2604 33.7992 11.2604 32.8692V26.1338Z" fill="#E06666"/>
<path fill-rule="evenodd" clip-rule="evenodd" d="M11.2604 46.179C11.2604 45.249 12.0143 44.4951 12.9443 44.4951H29.7831C30.2297 44.4951 30.658 44.6725 30.9738 44.9883C31.2896 45.3041 31.467 45.7324 31.467 46.179V52.9145C31.467 53.8445 30.7131 54.5984 29.7831 54.5984H12.9443C12.0143 54.5984 11.2604 53.8445 11.2604 52.9145V46.179Z" fill="#E06666"/>
<path fill-rule="evenodd" clip-rule="evenodd" d="M4.84668 24.4498H9.98131V34.5532H4.84668V24.4498Z" fill="#E06666"/>
<path fill-rule="evenodd" clip-rule="evenodd" d="M4.84534 34.5541H9.97996V44.6574H4.84534V34.5541Z" fill="#E06666"/>
<path fill-rule="evenodd" clip-rule="evenodd" d="M4.84534 44.495H9.97996V54.5983H4.84534V44.495Z" fill="#E06666"/>
<path fill-rule="evenodd" clip-rule="evenodd" d="M4.84534 66.978H9.97996V74.6477H4.84534V66.978Z" fill="#E06666"/>
<path fill-rule="evenodd" clip-rule="evenodd" d="M0.318481 24.6624H3.57256V27.8089H0.318481V24.6624Z" fill="#E06666"/>
<path fill-rule="evenodd" clip-rule="evenodd" d="M0.318481 29.0868H3.57256V32.2333H0.318481V29.0868Z" fill="#E06666"/>
<path fill-rule="evenodd" clip-rule="evenodd" d="M0.318481 33.5111H3.57256V36.6576H0.318481V33.5111Z" fill="#E06666"/>
<path fill-rule="evenodd" clip-rule="evenodd" d="M0.318481 37.9355H3.57256V41.0821H0.318481V37.9355Z" fill="#E06666"/>
<path fill-rule="evenodd" clip-rule="evenodd" d="M0.318481 42.3599H3.57256V45.5064H0.318481V42.3599Z" fill="#E06666"/>
<path fill-rule="evenodd" clip-rule="evenodd" d="M0.318481 46.7842H3.57256V49.9307H0.318481V46.7842Z" fill="#E06666"/>
<path fill-rule="evenodd" clip-rule="evenodd" d="M0.318481 51.2086H3.57256V54.3552H0.318481V51.2086Z" fill="#E06666"/>
<path fill-rule="evenodd" clip-rule="evenodd" d="M0.315552 66.9779H3.56963V70.1244H0.315552V66.9779Z" fill="#E06666"/>
<path fill-rule="evenodd" clip-rule="evenodd" d="M0.315552 71.4022H3.56963V74.5488H0.315552V71.4022Z" fill="#E06666"/>
<path fill-rule="evenodd" clip-rule="evenodd" d="M11.2559 68.2524C11.2559 67.5464 11.8282 66.9741 12.5342 66.9741H30.1842C30.5232 66.9741 30.8484 67.1088 31.0881 67.3485C31.3278 67.5883 31.4625 67.9134 31.4625 68.2524V73.3655C31.4625 74.0715 30.8902 74.6438 30.1842 74.6438H12.5342C11.8282 74.6438 11.2559 74.0715 11.2559 73.3655V68.2524Z" fill="#E06666"/>
<path fill-rule="evenodd" clip-rule="evenodd" d="M23.0477 70.1373C22.1177 70.1373 21.3638 69.3834 21.3638 68.4534V51.6146C21.3638 51.168 21.5412 50.7397 21.857 50.4239C22.1728 50.1081 22.6011 49.9307 23.0477 49.9307H29.7832C30.7132 49.9307 31.4671 50.6846 31.4671 51.6146V68.4534C31.4671 69.3834 30.7132 70.1373 29.7832 70.1373H23.0477Z" fill="#E06666"/>
<path d="M63.6212 67.4785C61.1548 67.4785 58.9769 67.2057 57.0877 66.6599C55.1995 66.1132 53.545 65.3403 52.1243 64.3413C50.7035 63.3423 49.4317 62.1716 48.3087 60.8291L54.1624 54.2727C55.7233 56.2707 57.3544 57.5898 59.0557 58.23C60.7569 58.8703 62.357 59.1904 63.856 59.1904C64.4485 59.1904 64.9789 59.136 65.4474 59.0273C65.9159 58.9175 66.2747 58.7377 66.5237 58.4877C66.7737 58.2377 66.8987 57.8942 66.8987 57.4572C66.8987 57.0517 66.766 56.7087 66.5008 56.4282C66.2355 56.1467 65.8844 55.9043 65.4474 55.7011C65.0104 55.4978 64.5343 55.3261 64.0191 55.1858C63.5038 55.0456 63.0043 54.9287 62.5206 54.8352C62.0369 54.7417 61.6075 54.6477 61.2325 54.5532C59.3595 54.1162 57.7203 53.5857 56.3148 52.9618C54.9103 52.3378 53.7396 51.5888 52.8026 50.7148C51.8666 49.8398 51.172 48.8403 50.7188 47.7163C50.2665 46.5923 50.0404 45.3281 50.0404 43.9236C50.0404 42.3312 50.4073 40.8794 51.141 39.5685C51.8748 38.2575 52.858 37.134 54.0907 36.198C55.3245 35.261 56.7294 34.5431 58.3057 34.0441C59.8829 33.5441 61.5145 33.2941 63.2005 33.2941C65.6659 33.2941 67.7259 33.5202 69.3804 33.9724C71.0358 34.4247 72.4256 35.0725 73.5496 35.916C74.6736 36.7585 75.641 37.7417 76.452 38.8657L70.5526 44.5319C69.8656 43.8764 69.1471 43.3383 68.3971 42.9175C67.6481 42.4958 66.8753 42.1833 66.0785 41.98C65.2828 41.7768 64.4947 41.6752 63.7142 41.6752C62.9967 41.6752 62.388 41.73 61.888 41.8398C61.389 41.9496 60.9988 42.1213 60.7173 42.355C60.4368 42.5888 60.2965 42.9089 60.2965 43.3154C60.2965 43.7209 60.4759 44.0563 60.8346 44.3215C61.1934 44.5868 61.6461 44.8134 62.1929 45.0014C62.7396 45.1884 63.2858 45.3368 63.8316 45.4465C64.3783 45.5552 64.8387 45.6406 65.2127 45.7026C66.9302 46.0156 68.5069 46.4455 69.9429 46.9922C71.3788 47.538 72.6354 48.2245 73.7127 49.0517C74.7899 49.8789 75.6171 50.9094 76.1944 52.1432C76.7726 53.3759 77.0618 54.8352 77.0618 56.5212C77.0618 58.9247 76.4606 60.9384 75.2584 62.5624C74.0562 64.1853 72.4403 65.4104 70.4108 66.2377C68.3824 67.0649 66.1192 67.4785 63.6212 67.4785ZM84.0854 77.7819L90.3141 63.0776L90.4071 66.9175L78.654 41.9572H89.2363L92.7028 50.2925C93.0768 51.1665 93.3964 51.9938 93.6616 52.7743C93.9269 53.5547 94.122 54.2885 94.247 54.9755L93.311 55.8185C93.436 55.475 93.623 54.9363 93.872 54.2026C94.122 53.4689 94.4035 52.6183 94.7165 51.6508L97.994 41.9572H108.578L97.6662 67.0105L93.2638 77.7819H84.0854ZM112.089 67.0105V41.9572H120.894L121.362 47.0151L119.348 47.5761C119.692 46.3901 120.308 45.3368 121.197 44.416C122.087 43.4943 123.157 42.7682 124.406 42.2377C125.655 41.7072 126.982 41.4419 128.386 41.4419C130.259 41.4419 131.851 41.8322 133.162 42.6127C134.474 43.3932 135.465 44.5405 136.136 46.0547C136.808 47.569 137.144 49.4028 137.144 51.5563V67.0105H127.636V52.3535C127.636 51.6665 127.527 51.0888 127.308 50.6203C127.09 50.1518 126.762 49.7931 126.325 49.5441C125.888 49.2941 125.373 49.1691 124.781 49.1691C124.312 49.1691 123.883 49.2392 123.493 49.3794C123.103 49.5197 122.767 49.7306 122.485 50.0121C122.205 50.2925 121.986 50.6045 121.83 50.948C121.674 51.2915 121.597 51.6818 121.597 52.1188V67.0105H116.866C115.679 67.0105 114.688 67.0105 113.892 67.0105C113.097 67.0105 112.495 67.0105 112.089 67.0105ZM150.068 67.0105V42.8459H139.954V34.23H170.579V42.8459H160.184V67.0105H150.068ZM179.524 67.4313C177.432 67.4313 175.575 66.8774 173.951 65.7697C172.328 64.6609 171.048 63.131 170.111 61.1797C169.175 59.2285 168.707 56.9887 168.707 54.4602C168.707 51.9003 169.167 49.6447 170.088 47.6935C171.009 45.7422 172.289 44.2128 173.928 43.105C175.567 41.9963 177.463 41.4419 179.617 41.4419C180.741 41.4419 181.771 41.5979 182.707 41.9099C183.644 42.2219 184.471 42.6589 185.19 43.2209C185.908 43.7829 186.533 44.4308 187.063 45.1645C187.594 45.8982 188.047 46.6863 188.422 47.5288L186.501 47.4831V41.9572H195.82V67.0105H186.268V60.8764L188.374 61.0639C188.062 61.9684 187.633 62.8108 187.086 63.5913C186.541 64.3718 185.893 65.0431 185.143 65.605C184.394 66.167 183.551 66.6122 182.614 66.9404C181.678 67.2676 180.648 67.4313 179.524 67.4313ZM182.24 59.7057C183.146 59.7057 183.918 59.5029 184.557 59.0974C185.198 58.6909 185.681 58.0974 186.009 57.3169C186.337 56.5364 186.501 55.5842 186.501 54.4602C186.501 53.3362 186.337 52.3764 186.009 51.5807C185.681 50.7839 185.198 50.1828 184.557 49.7773C183.918 49.3718 183.146 49.1691 182.24 49.1691C181.335 49.1691 180.57 49.3718 179.945 49.7773C179.321 50.1828 178.844 50.7839 178.516 51.5807C178.189 52.3764 178.025 53.3362 178.025 54.4602C178.025 55.5842 178.189 56.5364 178.516 57.3169C178.844 58.0974 179.321 58.6909 179.945 59.0974C180.57 59.5029 181.335 59.7057 182.24 59.7057ZM214.037 77.7819C211.789 77.7819 209.565 77.4694 207.364 76.8444C205.162 76.2204 203.359 75.4089 201.955 74.4099L205.187 68.041C205.873 68.478 206.59 68.8525 207.339 69.1645C208.089 69.4765 208.878 69.7107 209.705 69.8672C210.532 70.0237 211.414 70.102 212.351 70.102C213.819 70.102 215.005 69.9069 215.909 69.5166C216.815 69.1264 217.478 68.5095 217.9 67.666C218.322 66.8235 218.533 65.7463 218.533 64.4343V60.6889L220.639 60.8764C220.389 61.9374 219.843 62.8738 219.001 63.6858C218.158 64.4978 217.113 65.1381 215.864 65.6066C214.615 66.0741 213.288 66.3078 211.883 66.3078C209.666 66.3078 207.707 65.8083 206.005 64.8093C204.304 63.8103 202.962 62.4135 201.978 60.6188C200.995 58.823 200.504 56.7077 200.504 54.2727C200.504 51.7443 200.988 49.5202 201.955 47.6005C202.922 45.6797 204.241 44.1731 205.911 43.0807C207.582 41.9882 209.494 41.4419 211.649 41.4419C212.586 41.4419 213.475 41.5359 214.318 41.7239C215.16 41.9109 215.941 42.1686 216.659 42.4968C217.378 42.824 218.018 43.2219 218.578 43.6904C219.14 44.1579 219.601 44.6726 219.96 45.2346C220.319 45.7966 220.562 46.4053 220.687 47.0608L218.766 47.4831L219.281 41.9572H228.086V64.5761C228.086 66.6675 227.766 68.5324 227.126 70.1706C226.485 71.8098 225.557 73.1991 224.339 74.3383C223.122 75.4785 221.647 76.3373 219.914 76.9145C218.181 77.4928 216.222 77.7819 214.037 77.7819ZM214.271 59.5182C215.239 59.5182 216.059 59.3154 216.729 58.9099C217.401 58.5034 217.908 57.9181 218.251 57.1538C218.594 56.3886 218.766 55.4597 218.766 54.3672C218.766 53.2737 218.594 52.3368 218.251 51.5563C217.908 50.7758 217.401 50.1828 216.729 49.7773C216.059 49.3718 215.239 49.1691 214.271 49.1691C213.303 49.1691 212.492 49.3718 211.836 49.7773C211.181 50.1828 210.681 50.7758 210.338 51.5563C209.994 52.3368 209.822 53.2737 209.822 54.3672C209.822 55.4597 209.994 56.3886 210.338 57.1538C210.681 57.9181 211.181 58.5034 211.836 58.9099C212.492 59.3154 213.303 59.5182 214.271 59.5182Z" fill="#DB6B6B"/>
</g>
</g>
<defs>
<clipPath id="clip0_22_81">
<rect width="227.744" height="100" fill="white" transform="translate(0.315674 0.5)"/>
</clipPath>
</defs>
</svg>
