<?xml version="1.0" standalone="no"?>
<!DOCTYPE svg PUBLIC "-//W3C//DTD SVG 20010904//EN"
 "http://www.w3.org/TR/2001/REC-SVG-20010904/DTD/svg10.dtd">
<svg version="1.0" xmlns="http://www.w3.org/2000/svg"
 width="300.000000pt" height="97.000000pt" viewBox="0 0 300.000000 97.000000"
 preserveAspectRatio="xMidYMid meet">
<metadata>
Created by potrace 1.10, written by Peter Selinger 2001-2011
</metadata>
<g transform="translate(0.000000,97.000000) scale(0.100000,-0.100000)"
fill="#000000" stroke="none">
<path d="M330 937 c-201 -47 -328 -229 -300 -430 12 -82 50 -154 124 -234 l64
-68 64 62 65 62 -54 53 c-96 95 -116 177 -68 275 36 72 89 106 171 111 50 3
72 0 108 -17 97 -47 142 -169 101 -269 -10 -23 -74 -96 -167 -188 l-151 -152
62 -61 63 -60 157 157 c170 169 201 215 221 324 26 138 -42 294 -164 377 -82
57 -200 79 -296 58z m202 -43 c74 -30 135 -79 174 -141 44 -67 56 -113 56
-207 0 -60 -5 -79 -37 -142 -31 -61 -60 -96 -171 -204 -74 -71 -138 -130 -142
-130 -12 0 -72 61 -72 72 0 6 64 76 143 157 167 170 174 184 155 311 -25 174
-121 274 -282 295 -75 9 -50 18 39 12 53 -3 109 -12 137 -23z m-99 -20 c46
-15 137 -86 137 -106 0 -6 -7 -4 -17 3 -9 8 -17 13 -17 11 -1 -2 -8 -1 -16 2
-90 29 -130 29 -207 0 -53 -19 -119 -92 -134 -148 -26 -95 -3 -180 72 -261
l43 -46 -37 -37 -37 -36 -50 53 c-27 29 -62 78 -77 109 -24 50 -28 69 -28 147
0 103 20 157 81 225 83 91 181 120 287 84z"/>
<path d="M1014 726 c-121 -53 -99 -237 32 -262 39 -7 97 7 128 31 19 15 19 15
-3 39 -22 24 -24 24 -57 9 -41 -20 -79 -7 -94 32 -25 65 49 122 106 81 17 -13
22 -12 42 6 31 29 28 36 -20 58 -50 23 -91 25 -134 6z"/>
<path d="M1285 726 c-16 -7 -41 -26 -55 -41 -21 -22 -25 -37 -25 -85 0 -48 4
-63 25 -85 51 -55 123 -69 188 -36 46 24 72 67 72 121 0 55 -25 96 -75 120
-48 23 -87 25 -130 6z m109 -78 c34 -49 8 -118 -45 -118 -38 0 -69 32 -69 70
0 62 81 96 114 48z"/>
<path d="M1520 600 l0 -140 35 0 35 0 0 82 c0 45 3 78 7 74 4 -4 17 -33 28
-64 18 -52 23 -57 50 -57 27 0 31 5 55 70 14 39 24 77 23 85 -4 21 13 44 26
36 6 -4 11 -20 11 -36 0 -22 -4 -28 -15 -24 -13 5 -15 -8 -15 -80 l0 -86 35 0
35 0 0 140 0 140 -44 0 -44 0 -32 -77 c-18 -43 -33 -79 -34 -80 -1 -2 -17 33
-35 77 l-32 80 -45 0 -44 0 0 -140z m74 43 c-18 -29 -34 -27 -34 5 0 37 10 46
29 27 12 -11 13 -20 5 -32z"/>
<path d="M1870 601 l0 -141 40 0 c40 0 40 0 40 40 l0 40 49 0 c71 0 106 31
106 94 0 36 -6 51 -26 72 -24 24 -36 27 -118 32 l-91 5 0 -142z m148 63 c8 -2
12 -15 10 -31 -3 -24 -8 -28 -40 -31 l-38 -3 0 41 c0 39 1 40 28 34 15 -3 33
-8 40 -10z m-81 -112 c-8 -11 -12 -10 -20 3 -5 9 -6 23 -3 32 6 14 8 14 20 -3
11 -14 11 -22 3 -32z"/>
<path d="M2201 718 c-5 -13 -31 -76 -59 -140 l-50 -118 43 0 c37 0 44 3 49 25
6 23 11 25 61 25 50 0 56 -3 65 -25 8 -21 16 -25 50 -25 22 0 40 3 40 8 0 4
-24 66 -54 137 l-54 130 -41 3 c-35 3 -42 0 -50 -20z m62 -90 c3 -13 9 -33 12
-45 7 -21 4 -23 -28 -23 l-36 0 17 45 c18 50 27 56 35 23z"/>
<path d="M2420 600 l0 -140 41 0 42 0 -5 75 c-3 41 -2 75 1 75 3 0 30 -34 59
-75 49 -68 57 -75 88 -75 l34 0 0 140 0 140 -35 0 -34 0 -3 -80 -3 -81 -58 81
c-53 73 -61 80 -93 80 l-34 0 0 -140z m79 34 c-28 -33 -50 -4 -32 42 6 15 8
15 25 -6 14 -17 16 -26 7 -36z m141 -84 c0 -34 -23 -41 -39 -12 -7 13 -5 20
12 29 12 7 23 12 25 13 1 0 2 -13 2 -30z"/>
<path d="M2710 732 c0 -5 22 -49 48 -98 41 -76 48 -95 44 -131 l-4 -43 46 0
46 0 -6 39 c-5 34 0 51 45 134 28 52 51 97 51 101 0 3 -17 6 -38 6 -37 0 -39
-2 -67 -60 l-29 -60 -30 57 c-28 53 -34 58 -68 61 -21 2 -38 -1 -38 -6z m150
-148 c0 -22 -18 -26 -29 -5 -15 27 -14 30 9 24 11 -3 20 -11 20 -19z"/>
<path d="M370 679 c-40 -16 -69 -50 -81 -91 -8 -32 -6 -46 10 -82 45 -102 187
-102 235 -1 49 102 -59 216 -164 174z m91 -39 c22 -12 49 -60 49 -89 0 -11
-11 -33 -25 -49 -74 -88 -211 8 -148 104 26 40 83 56 124 34z"/>
<path d="M2440 340 c10 -6 11 -10 3 -10 -8 0 -13 -15 -13 -40 l0 -40 -53 0
-53 0 4 34 c2 18 -1 37 -7 40 -8 5 -11 -19 -11 -78 0 -55 4 -86 11 -86 6 0 9
15 7 38 l-3 37 53 3 52 3 0 -40 c0 -23 5 -41 10 -41 6 0 10 35 10 86 0 65 3
83 13 78 8 -5 8 -2 -2 9 -7 9 -19 17 -25 17 -6 0 -4 -5 4 -10z"/>
<path d="M1080 324 c0 -5 14 -29 30 -54 18 -27 30 -58 30 -77 0 -18 5 -33 10
-33 6 0 10 14 10 31 0 18 14 54 31 81 16 28 28 53 25 55 -3 3 -18 -15 -33 -40
-15 -26 -30 -47 -33 -47 -3 0 -14 16 -24 35 -20 36 -46 64 -46 49z"/>
<path d="M1692 248 l-2 -88 48 2 47 1 -42 4 -42 4 -4 82 -3 82 -2 -87z"/>
<path d="M1245 265 c-29 -28 -31 -51 -9 -83 32 -46 114 -17 114 41 0 22 -43
67 -65 67 -9 0 -27 -11 -40 -25z m73 -7 c21 -21 15 -67 -12 -79 -34 -16 -66 3
-66 39 0 33 16 52 45 52 12 0 26 -5 33 -12z"/>
<path d="M1382 239 c-2 -67 8 -79 66 -76 l42 1 0 63 c0 35 -4 63 -10 63 -5 0
-10 -23 -10 -50 0 -44 -3 -52 -25 -62 -36 -16 -53 3 -58 65 l-3 52 -2 -56z"/>
<path d="M1531 225 c2 -63 2 -66 8 -25 8 53 17 70 37 70 8 0 14 5 14 10 0 14
-13 13 -28 -2 -10 -10 -15 -10 -22 2 -7 10 -9 -8 -9 -55z"/>
<path d="M1830 283 c-64 -23 -46 -123 23 -123 35 0 57 25 57 65 0 47 -37 73
-80 58z m63 -34 c31 -50 -38 -105 -75 -59 -22 27 -23 44 -2 65 20 19 63 16 77
-6z"/>
<path d="M1963 280 c-25 -10 -38 -48 -28 -80 10 -31 52 -44 81 -25 21 14 24
14 24 0 0 -20 -39 -58 -53 -52 -7 3 -21 8 -32 12 -20 7 -20 6 -1 -9 25 -20 46
-20 74 0 20 14 22 23 21 92 -1 42 -3 69 -6 59 -4 -15 -6 -16 -26 -2 -24 17
-24 17 -54 5z m68 -31 c18 -34 -3 -69 -41 -69 -32 0 -53 30 -42 60 13 36 65
41 83 9z"/>
<path d="M2106 269 c-29 -23 -33 -54 -10 -87 30 -43 114 -15 114 38 0 24 -42
70 -63 70 -8 0 -26 -9 -41 -21z m72 -11 c21 -21 15 -67 -12 -79 -34 -16 -66 3
-66 39 0 33 16 52 45 52 12 0 26 -5 33 -12z"/>
<path d="M2505 265 c-29 -28 -31 -51 -9 -83 12 -18 24 -22 52 -20 19 2 37 9
40 16 3 10 -2 10 -21 1 -29 -13 -67 2 -67 26 0 11 13 15 50 15 43 0 50 3 50
19 0 21 -35 51 -58 51 -7 0 -24 -11 -37 -25z m73 -7 c21 -21 13 -28 -33 -28
-25 0 -45 4 -45 8 0 15 24 32 45 32 12 0 26 -5 33 -12z"/>
<path d="M2671 280 c-8 -4 -20 -6 -28 -3 -10 4 -13 -9 -13 -56 0 -34 4 -61 10
-61 6 0 10 20 10 44 0 35 5 48 22 60 23 16 22 31 -1 16z"/>
<path d="M2729 272 c-29 -24 -31 -79 -3 -99 22 -16 76 -13 82 5 3 10 -2 10
-21 1 -29 -13 -67 2 -67 26 0 11 13 15 50 15 43 0 50 3 50 19 0 20 -34 51 -56
51 -7 0 -22 -8 -35 -18z m69 -14 c21 -21 13 -28 -33 -28 -25 0 -45 4 -45 8 0
15 24 32 45 32 12 0 26 -5 33 -12z"/>
</g>
</svg>
