<svg version="1.1" viewBox="0.0 0.0 321.87401574803147 515.6246719160105" fill="none" stroke="none" stroke-linecap="square" stroke-miterlimit="10" xmlns:xlink="http://www.w3.org/1999/xlink" xmlns="http://www.w3.org/2000/svg"><clipPath id="p.0"><path d="m0 0l321.87402 0l0 515.6247l-321.87402 0l0 -515.6247z" clip-rule="nonzero"/></clipPath><g clip-path="url(#p.0)"><path fill="#000000" fill-opacity="0.0" d="m0 0l321.87402 0l0 515.6247l-321.87402 0z" fill-rule="evenodd"/><path fill="#e06666" d="m112.183876 17.260187l0 0c0 -9.532537 7.727646 -17.260187 17.260185 -17.260187l172.59775 0c4.577667 0 8.967865 1.8184788 12.204773 5.055392c3.2369385 3.2369132 5.0553894 7.62711 5.0553894 12.204796l0 69.03868c0 9.532539 -7.7276306 17.260185 -17.260162 17.260185l-172.59775 0c-9.532539 0 -17.260185 -7.727646 -17.260185 -17.260185z" fill-rule="evenodd"/><path fill="#e06666" d="m112.18387 222.72476l0 0c0 -9.532547 7.727646 -17.260193 17.260178 -17.260193l172.59773 0c4.5776978 0 8.9678955 1.8184814 12.204803 5.0553894c3.236908 3.236908 5.0553894 7.6271057 5.0553894 12.204803l0 69.038666c0 9.532532 -7.7276306 17.260193 -17.260193 17.260193l-172.59773 0c-9.532532 0 -17.260178 -7.727661 -17.260178 -17.260193z" fill-rule="evenodd"/><path fill="#e06666" d="m46.442413 5.616798E-5l52.62992 0l0 103.55906l-52.62992 0z" fill-rule="evenodd"/><path fill="#e06666" d="m46.429546 103.568306l52.629917 0l0 103.55906l-52.629917 0z" fill-rule="evenodd"/><path fill="#e06666" d="m46.429546 205.46362l52.629917 0l0 103.55905l-52.629917 0z" fill-rule="evenodd"/><path fill="#e06666" d="m46.429546 435.91412l52.629917 0l0 78.6142l-52.629917 0z" fill-rule="evenodd"/><path fill="#e06666" d="m0.02887454 2.179176l33.354332 0l0 32.25197l-33.354332 0z" fill-rule="evenodd"/><path fill="#e06666" d="m0.02887454 47.528893l33.354332 0l0 32.25197l-33.354332 0z" fill-rule="evenodd"/><path fill="#e06666" d="m0.02887454 92.87861l33.354332 0l0 32.25197l-33.354332 0z" fill-rule="evenodd"/><path fill="#e06666" d="m0.02887454 138.22833l33.354332 0l0 32.25197l-33.354332 0z" fill-rule="evenodd"/><path fill="#e06666" d="m0.02887454 183.57805l33.354332 0l0 32.25197l-33.354332 0z" fill-rule="evenodd"/><path fill="#e06666" d="m0.02887454 228.92776l33.354332 0l0 32.251953l-33.354332 0z" fill-rule="evenodd"/><path fill="#e06666" d="m0.02887454 274.27747l33.354332 0l0 32.251984l-33.354332 0z" fill-rule="evenodd"/><path fill="#e06666" d="m-0.0011527559 435.91266l33.35433 0l0 32.251953l-33.35433 0z" fill-rule="evenodd"/><path fill="#e06666" d="m-0.0011527559 481.26236l33.35433 0l0 32.251984l-33.35433 0z" fill-rule="evenodd"/><path fill="#e06666" d="m112.13648 448.97665l0 0c0 -7.236389 5.866249 -13.102631 13.102623 -13.102631l180.91287 0c3.4750366 0 6.8077393 1.3804321 9.264954 3.837677c2.4572144 2.4572144 3.837677 5.789917 3.837677 9.264954l0 52.408905c0 7.236389 -5.866272 13.1026 -13.102631 13.1026l-180.91287 0l0 0c-7.236374 0 -13.102623 -5.866211 -13.102623 -13.1026z" fill-rule="evenodd"/><path fill="#e06666" d="m233.00311 468.2966l0 0c-9.532547 0 -17.260193 -7.727661 -17.260193 -17.260193l0 -172.59775c0 -4.577667 1.8184814 -8.967865 5.0553894 -12.204803c3.2369232 -3.236908 7.6271057 -5.0553894 12.204803 -5.0553894l69.038666 0c9.532562 0 17.260193 7.727661 17.260193 17.260193l0 172.59775c0 9.532532 -7.7276306 17.260193 -17.260193 17.260193z" fill-rule="evenodd"/></g></svg>